M48
;Layer_Color=9474304
;FILE_FORMAT=2:4
INCH,LZ
;TYPE=PLATED
T1F00S00C0.0402
T2F00S00C0.0551
T3F00S00C0.0750
T4F00S00C0.0906
T5F00S00C0.1500
%
T01
X009715Y-020293
Y-019309
Y-018522
Y-017537
X013061
Y-018522
Y-019309
Y-020293
T02
X0084Y-0125
Y-0105
Y-0085
Y-0065
Y-0045
Y-0008
Y0012
Y0032
X0144Y0022
Y0002
Y-0035
Y-0055
Y-0075
Y-0095
Y-0115
Y0042
Y0062
Y0082
X0084Y0072
Y0052
T03
X0Y-01405
Y-01255
X0025
Y-01405
Y-01105
Y-00955
Y-00805
Y-006
Y-0045
Y-003
Y-0015
Y0
X0
Y-0015
Y-003
Y-0045
Y-006
Y-00805
Y-00955
Y-01105
T04
X010573Y-0215
X01325
Y-016331
X010573
T05
X0115Y-02525
Y011
M30
