%FSLAX24Y24*%
%MOIN*%
G70*
G01*
G75*
G04 Layer_Color=16711935*
%ADD10C,0.0100*%
%ADD11C,0.0600*%
%ADD12C,0.1378*%
%ADD13C,0.2500*%
%ADD14O,0.1750X0.1000*%
%ADD15C,0.0866*%
%ADD16C,0.0680*%
%ADD17C,0.1458*%
%ADD18C,0.2580*%
%ADD19O,0.1830X0.1080*%
%ADD20C,0.0946*%
D10*
X-1650Y-14850D02*
G03*
X-1150Y-15350I500J0D01*
G01*
X6000Y-15850D02*
G03*
X5500Y-15350I-500J0D01*
G01*
X6000Y-27000D02*
G03*
X6500Y-27500I500J0D01*
G01*
X15800D02*
G03*
X16300Y-27000I0J500D01*
G01*
Y12750D02*
G03*
X15800Y13250I-500J0D01*
G01*
X6500D02*
G03*
X6000Y12750I0J-500D01*
G01*
X5500Y1300D02*
G03*
X6000Y1800I0J500D01*
G01*
X-1150Y1300D02*
G03*
X-1650Y800I0J-500D01*
G01*
Y-14850D02*
Y-1500D01*
X-1150Y-15350D02*
X5500D01*
X6000Y-27000D02*
Y-15850D01*
X6500Y-27500D02*
X15800D01*
X16300Y-27000D02*
Y12750D01*
X6500Y13250D02*
X15800D01*
X6000Y1800D02*
Y12750D01*
X-1150Y1300D02*
X5500D01*
X-1650Y-1300D02*
Y800D01*
Y-1500D02*
Y-1300D01*
X-250Y-15350D02*
X150D01*
X-250Y1300D02*
X50D01*
M02*
