%FSLAX24Y24*%
%MOIN*%
G70*
G01*
G75*
G04 Layer_Color=8388736*
%ADD10C,0.0100*%
%ADD11C,0.0600*%
%ADD12C,0.1378*%
%ADD13C,0.2500*%
%ADD14O,0.1750X0.1000*%
%ADD15C,0.0866*%
%ADD16C,0.0680*%
%ADD17C,0.1458*%
%ADD18C,0.2580*%
%ADD19O,0.1830X0.1080*%
%ADD20C,0.0946*%
D16*
X13061Y-17537D02*
D03*
Y-18522D02*
D03*
Y-19309D02*
D03*
Y-20293D02*
D03*
X9715Y-17537D02*
D03*
Y-18522D02*
D03*
Y-19309D02*
D03*
Y-20293D02*
D03*
D17*
X10573Y-21500D02*
D03*
Y-16331D02*
D03*
X13250D02*
D03*
Y-21500D02*
D03*
D18*
X11500Y11000D02*
D03*
Y-25250D02*
D03*
D19*
X2500Y-14050D02*
D03*
X0D02*
D03*
X2500Y-12550D02*
D03*
X0D02*
D03*
X2500Y-11050D02*
D03*
X0D02*
D03*
X2500Y-9550D02*
D03*
X0D02*
D03*
X2500Y-8050D02*
D03*
X0D02*
D03*
X2500Y-6000D02*
D03*
X0D02*
D03*
X2500Y-4500D02*
D03*
X0D02*
D03*
X2500Y-3000D02*
D03*
X0D02*
D03*
X2500Y-1500D02*
D03*
X0D02*
D03*
X2500Y0D02*
D03*
X0D02*
D03*
D20*
X8400Y-12500D02*
D03*
Y-10500D02*
D03*
Y-8500D02*
D03*
Y-6500D02*
D03*
Y-4500D02*
D03*
X14400Y-11500D02*
D03*
Y-9500D02*
D03*
Y-7500D02*
D03*
Y-5500D02*
D03*
Y-3500D02*
D03*
X8400Y-800D02*
D03*
Y1200D02*
D03*
Y3200D02*
D03*
Y5200D02*
D03*
Y7200D02*
D03*
X14400Y200D02*
D03*
Y2200D02*
D03*
Y4200D02*
D03*
Y6200D02*
D03*
Y8200D02*
D03*
M02*
