%FSLAX24Y24*%
%MOIN*%
G70*
G01*
G75*
G04 Layer_Physical_Order=1*
G04 Layer_Color=255*
%ADD10C,0.0100*%
%ADD11C,0.0600*%
%ADD12C,0.1378*%
%ADD13C,0.2500*%
%ADD14O,0.1750X0.1000*%
%ADD15C,0.0866*%
G36*
X16304Y-27000D02*
X16287Y-27131D01*
X16237Y-27252D01*
X16157Y-27357D01*
X16052Y-27437D01*
X15931Y-27487D01*
X15804Y-27504D01*
X15800Y-27500D01*
Y-27500D01*
X11050D01*
X6500Y-27504D01*
X6369Y-27487D01*
X6248Y-27437D01*
X6143Y-27357D01*
X6063Y-27252D01*
X6013Y-27131D01*
X5996Y-27004D01*
X6000Y-27000D01*
X6000D01*
X6000Y-27000D01*
X6005Y-15900D01*
X5986Y-15756D01*
X5930Y-15623D01*
X5842Y-15508D01*
X5727Y-15420D01*
X5594Y-15364D01*
X5450Y-15345D01*
Y-15350D01*
X-1100Y-15353D01*
X-1218Y-15341D01*
X-1331Y-15307D01*
X-1435Y-15251D01*
X-1526Y-15176D01*
X-1601Y-15085D01*
X-1657Y-14981D01*
X-1691Y-14868D01*
X-1703Y-14753D01*
X-1700Y-14750D01*
X-1700D01*
X-1700Y-14750D01*
X-1650Y-7000D01*
X6950D01*
Y-3250D01*
Y-2500D01*
X16300D01*
X16304Y-27000D01*
D02*
G37*
G36*
X15931Y13237D02*
X16052Y13187D01*
X16157Y13107D01*
X16237Y13002D01*
X16287Y12881D01*
X16304Y12754D01*
X16300Y12750D01*
X16300D01*
Y-2398D01*
X6950D01*
X6911Y-2406D01*
X6878Y-2428D01*
X6856Y-2461D01*
X6848Y-2500D01*
Y-3250D01*
Y-6898D01*
X-1650D01*
X-1650Y-6898D01*
X-1655Y750D01*
X-1636Y894D01*
X-1580Y1027D01*
X-1492Y1142D01*
X-1377Y1230D01*
X-1244Y1286D01*
X-1105Y1304D01*
X-1100Y1300D01*
Y1300D01*
X-1100Y1300D01*
X5500Y1296D01*
X5631Y1313D01*
X5752Y1363D01*
X5857Y1443D01*
X5937Y1548D01*
X5987Y1669D01*
X6004Y1800D01*
X6000D01*
X5996Y12750D01*
X6013Y12881D01*
X6063Y13002D01*
X6143Y13107D01*
X6248Y13187D01*
X6369Y13237D01*
X6496Y13254D01*
X6500Y13250D01*
Y13250D01*
X15800Y13254D01*
X15931Y13237D01*
D02*
G37*
%LPC*%
G36*
X375Y-8947D02*
X-375D01*
X-493Y-8959D01*
X-606Y-8993D01*
X-710Y-9049D01*
X-801Y-9124D01*
X-876Y-9215D01*
X-932Y-9319D01*
X-966Y-9432D01*
X-978Y-9550D01*
X-966Y-9668D01*
X-932Y-9781D01*
X-876Y-9885D01*
X-801Y-9976D01*
X-710Y-10051D01*
X-606Y-10107D01*
X-493Y-10141D01*
X-375Y-10153D01*
X375D01*
X493Y-10141D01*
X606Y-10107D01*
X710Y-10051D01*
X801Y-9976D01*
X876Y-9885D01*
X932Y-9781D01*
X966Y-9668D01*
X978Y-9550D01*
X966Y-9432D01*
X932Y-9319D01*
X876Y-9215D01*
X801Y-9124D01*
X710Y-9049D01*
X606Y-8993D01*
X493Y-8959D01*
X375Y-8947D01*
D02*
G37*
G36*
X8550Y-9985D02*
Y-10350D01*
X8915D01*
X8866Y-10231D01*
X8780Y-10120D01*
X8669Y-10034D01*
X8550Y-9985D01*
D02*
G37*
G36*
X8250D02*
X8131Y-10034D01*
X8020Y-10120D01*
X7934Y-10231D01*
X7885Y-10350D01*
X8250D01*
Y-9985D01*
D02*
G37*
G36*
X2350Y-9700D02*
X1543D01*
X1568Y-9781D01*
X1624Y-9885D01*
X1699Y-9976D01*
X1790Y-10051D01*
X1894Y-10107D01*
X2007Y-10141D01*
X2125Y-10153D01*
X2350D01*
Y-9700D01*
D02*
G37*
G36*
Y-8947D02*
X2125D01*
X2007Y-8959D01*
X1894Y-8993D01*
X1790Y-9049D01*
X1699Y-9124D01*
X1624Y-9215D01*
X1568Y-9319D01*
X1543Y-9400D01*
X2350D01*
Y-8947D01*
D02*
G37*
G36*
X14400Y-8962D02*
X14261Y-8981D01*
X14131Y-9034D01*
X14020Y-9120D01*
X13934Y-9231D01*
X13881Y-9361D01*
X13862Y-9500D01*
X13881Y-9639D01*
X13934Y-9769D01*
X14020Y-9880D01*
X14131Y-9966D01*
X14261Y-10019D01*
X14400Y-10038D01*
X14539Y-10019D01*
X14669Y-9966D01*
X14780Y-9880D01*
X14866Y-9769D01*
X14919Y-9639D01*
X14938Y-9500D01*
X14919Y-9361D01*
X14866Y-9231D01*
X14780Y-9120D01*
X14669Y-9034D01*
X14539Y-8981D01*
X14400Y-8962D01*
D02*
G37*
G36*
X3456Y-9700D02*
X2650D01*
Y-10153D01*
X2875D01*
X2993Y-10141D01*
X3106Y-10107D01*
X3210Y-10051D01*
X3301Y-9976D01*
X3376Y-9885D01*
X3432Y-9781D01*
X3456Y-9700D01*
D02*
G37*
G36*
Y-11200D02*
X2650D01*
Y-11653D01*
X2875D01*
X2993Y-11641D01*
X3106Y-11607D01*
X3210Y-11551D01*
X3301Y-11476D01*
X3376Y-11385D01*
X3432Y-11281D01*
X3456Y-11200D01*
D02*
G37*
G36*
X2350D02*
X1543D01*
X1568Y-11281D01*
X1624Y-11385D01*
X1699Y-11476D01*
X1790Y-11551D01*
X1894Y-11607D01*
X2007Y-11641D01*
X2125Y-11653D01*
X2350D01*
Y-11200D01*
D02*
G37*
G36*
X375Y-10447D02*
X-375D01*
X-493Y-10459D01*
X-606Y-10493D01*
X-710Y-10549D01*
X-801Y-10624D01*
X-876Y-10715D01*
X-932Y-10819D01*
X-966Y-10932D01*
X-978Y-11050D01*
X-966Y-11168D01*
X-932Y-11281D01*
X-876Y-11385D01*
X-801Y-11476D01*
X-710Y-11551D01*
X-606Y-11607D01*
X-493Y-11641D01*
X-375Y-11653D01*
X375D01*
X493Y-11641D01*
X606Y-11607D01*
X710Y-11551D01*
X801Y-11476D01*
X876Y-11385D01*
X932Y-11281D01*
X966Y-11168D01*
X978Y-11050D01*
X966Y-10932D01*
X932Y-10819D01*
X876Y-10715D01*
X801Y-10624D01*
X710Y-10549D01*
X606Y-10493D01*
X493Y-10459D01*
X375Y-10447D01*
D02*
G37*
G36*
X8250Y-10650D02*
X7885D01*
X7934Y-10769D01*
X8020Y-10880D01*
X8131Y-10966D01*
X8250Y-11015D01*
Y-10650D01*
D02*
G37*
G36*
X2875Y-10447D02*
X2650D01*
Y-10900D01*
X3456D01*
X3432Y-10819D01*
X3376Y-10715D01*
X3301Y-10624D01*
X3210Y-10549D01*
X3106Y-10493D01*
X2993Y-10459D01*
X2875Y-10447D01*
D02*
G37*
G36*
X2350D02*
X2125D01*
X2007Y-10459D01*
X1894Y-10493D01*
X1790Y-10549D01*
X1699Y-10624D01*
X1624Y-10715D01*
X1568Y-10819D01*
X1543Y-10900D01*
X2350D01*
Y-10447D01*
D02*
G37*
G36*
X8915Y-10650D02*
X8550D01*
Y-11015D01*
X8669Y-10966D01*
X8780Y-10880D01*
X8866Y-10769D01*
X8915Y-10650D01*
D02*
G37*
G36*
X2350Y-7447D02*
X2125D01*
X2007Y-7459D01*
X1894Y-7493D01*
X1790Y-7549D01*
X1699Y-7624D01*
X1624Y-7715D01*
X1568Y-7819D01*
X1543Y-7900D01*
X2350D01*
Y-7447D01*
D02*
G37*
G36*
X14400Y-6962D02*
X14261Y-6981D01*
X14131Y-7034D01*
X14020Y-7120D01*
X13934Y-7231D01*
X13881Y-7361D01*
X13862Y-7500D01*
X13881Y-7639D01*
X13934Y-7769D01*
X14020Y-7880D01*
X14131Y-7966D01*
X14261Y-8019D01*
X14400Y-8038D01*
X14539Y-8019D01*
X14669Y-7966D01*
X14780Y-7880D01*
X14866Y-7769D01*
X14919Y-7639D01*
X14938Y-7500D01*
X14919Y-7361D01*
X14866Y-7231D01*
X14780Y-7120D01*
X14669Y-7034D01*
X14539Y-6981D01*
X14400Y-6962D01*
D02*
G37*
G36*
X8550Y-7985D02*
Y-8350D01*
X8915D01*
X8866Y-8231D01*
X8780Y-8120D01*
X8669Y-8034D01*
X8550Y-7985D01*
D02*
G37*
G36*
X2875Y-7447D02*
X2650D01*
Y-7900D01*
X3456D01*
X3432Y-7819D01*
X3376Y-7715D01*
X3301Y-7624D01*
X3210Y-7549D01*
X3106Y-7493D01*
X2993Y-7459D01*
X2875Y-7447D01*
D02*
G37*
G36*
X375Y-5397D02*
X-375D01*
X-493Y-5409D01*
X-606Y-5443D01*
X-710Y-5499D01*
X-801Y-5574D01*
X-876Y-5665D01*
X-932Y-5769D01*
X-966Y-5882D01*
X-978Y-6000D01*
X-966Y-6118D01*
X-932Y-6231D01*
X-876Y-6335D01*
X-801Y-6426D01*
X-710Y-6501D01*
X-606Y-6557D01*
X-493Y-6591D01*
X-375Y-6603D01*
X375D01*
X493Y-6591D01*
X606Y-6557D01*
X710Y-6501D01*
X801Y-6426D01*
X876Y-6335D01*
X932Y-6231D01*
X966Y-6118D01*
X978Y-6000D01*
X966Y-5882D01*
X932Y-5769D01*
X876Y-5665D01*
X801Y-5574D01*
X710Y-5499D01*
X606Y-5443D01*
X493Y-5409D01*
X375Y-5397D01*
D02*
G37*
G36*
X8915Y-6650D02*
X8550D01*
Y-7015D01*
X8669Y-6966D01*
X8780Y-6880D01*
X8866Y-6769D01*
X8915Y-6650D01*
D02*
G37*
G36*
X8250D02*
X7885D01*
X7934Y-6769D01*
X8020Y-6880D01*
X8131Y-6966D01*
X8250Y-7015D01*
Y-6650D01*
D02*
G37*
G36*
X8915Y-8650D02*
X8550D01*
Y-9015D01*
X8669Y-8966D01*
X8780Y-8880D01*
X8866Y-8769D01*
X8915Y-8650D01*
D02*
G37*
G36*
X8250D02*
X7885D01*
X7934Y-8769D01*
X8020Y-8880D01*
X8131Y-8966D01*
X8250Y-9015D01*
Y-8650D01*
D02*
G37*
G36*
X2875Y-8947D02*
X2650D01*
Y-9400D01*
X3456D01*
X3432Y-9319D01*
X3376Y-9215D01*
X3301Y-9124D01*
X3210Y-9049D01*
X3106Y-8993D01*
X2993Y-8959D01*
X2875Y-8947D01*
D02*
G37*
G36*
X375Y-7447D02*
X-375D01*
X-493Y-7459D01*
X-606Y-7493D01*
X-710Y-7549D01*
X-801Y-7624D01*
X-876Y-7715D01*
X-932Y-7819D01*
X-966Y-7932D01*
X-978Y-8050D01*
X-966Y-8168D01*
X-932Y-8281D01*
X-876Y-8385D01*
X-801Y-8476D01*
X-710Y-8551D01*
X-606Y-8607D01*
X-493Y-8641D01*
X-375Y-8653D01*
X375D01*
X493Y-8641D01*
X606Y-8607D01*
X710Y-8551D01*
X801Y-8476D01*
X876Y-8385D01*
X932Y-8281D01*
X966Y-8168D01*
X978Y-8050D01*
X966Y-7932D01*
X932Y-7819D01*
X876Y-7715D01*
X801Y-7624D01*
X710Y-7549D01*
X606Y-7493D01*
X493Y-7459D01*
X375Y-7447D01*
D02*
G37*
G36*
X8250Y-7985D02*
X8131Y-8034D01*
X8020Y-8120D01*
X7934Y-8231D01*
X7885Y-8350D01*
X8250D01*
Y-7985D01*
D02*
G37*
G36*
X3456Y-8200D02*
X2650D01*
Y-8653D01*
X2875D01*
X2993Y-8641D01*
X3106Y-8607D01*
X3210Y-8551D01*
X3301Y-8476D01*
X3376Y-8385D01*
X3432Y-8281D01*
X3456Y-8200D01*
D02*
G37*
G36*
X2350D02*
X1543D01*
X1568Y-8281D01*
X1624Y-8385D01*
X1699Y-8476D01*
X1790Y-8551D01*
X1894Y-8607D01*
X2007Y-8641D01*
X2125Y-8653D01*
X2350D01*
Y-8200D01*
D02*
G37*
G36*
X14400Y-10962D02*
X14261Y-10981D01*
X14131Y-11034D01*
X14020Y-11120D01*
X13934Y-11231D01*
X13881Y-11361D01*
X13862Y-11500D01*
X13881Y-11639D01*
X13934Y-11769D01*
X14020Y-11880D01*
X14131Y-11966D01*
X14261Y-12019D01*
X14400Y-12038D01*
X14539Y-12019D01*
X14669Y-11966D01*
X14780Y-11880D01*
X14866Y-11769D01*
X14919Y-11639D01*
X14938Y-11500D01*
X14919Y-11361D01*
X14866Y-11231D01*
X14780Y-11120D01*
X14669Y-11034D01*
X14539Y-10981D01*
X14400Y-10962D01*
D02*
G37*
G36*
X9715Y-18118D02*
X9610Y-18132D01*
X9513Y-18172D01*
X9429Y-18236D01*
X9365Y-18320D01*
X9325Y-18417D01*
X9311Y-18522D01*
X9325Y-18626D01*
X9365Y-18723D01*
X9429Y-18807D01*
X9513Y-18871D01*
X9559Y-18890D01*
Y-18940D01*
X9513Y-18960D01*
X9429Y-19024D01*
X9365Y-19107D01*
X9325Y-19205D01*
X9311Y-19309D01*
X9325Y-19413D01*
X9365Y-19511D01*
X9429Y-19594D01*
X9513Y-19658D01*
X9610Y-19699D01*
X9715Y-19713D01*
X9819Y-19699D01*
X9916Y-19658D01*
X10000Y-19594D01*
X10064Y-19511D01*
X10104Y-19413D01*
X10118Y-19309D01*
X10104Y-19205D01*
X10064Y-19107D01*
X10000Y-19024D01*
X9916Y-18960D01*
X9870Y-18940D01*
Y-18890D01*
X9916Y-18871D01*
X10000Y-18807D01*
X10064Y-18723D01*
X10104Y-18626D01*
X10118Y-18522D01*
X10104Y-18417D01*
X10064Y-18320D01*
X10000Y-18236D01*
X9916Y-18172D01*
X9819Y-18132D01*
X9715Y-18118D01*
D02*
G37*
G36*
X13211Y-19922D02*
Y-20143D01*
X13432D01*
X13410Y-20092D01*
X13346Y-20008D01*
X13263Y-19944D01*
X13211Y-19922D01*
D02*
G37*
G36*
X12911D02*
X12859Y-19944D01*
X12776Y-20008D01*
X12712Y-20092D01*
X12690Y-20143D01*
X12911D01*
Y-19922D01*
D02*
G37*
G36*
X13061Y-18118D02*
X12957Y-18132D01*
X12859Y-18172D01*
X12776Y-18236D01*
X12712Y-18320D01*
X12671Y-18417D01*
X12658Y-18522D01*
X12671Y-18626D01*
X12712Y-18723D01*
X12776Y-18807D01*
X12859Y-18871D01*
X12906Y-18890D01*
Y-18940D01*
X12859Y-18960D01*
X12776Y-19024D01*
X12712Y-19107D01*
X12671Y-19205D01*
X12658Y-19309D01*
X12671Y-19413D01*
X12712Y-19511D01*
X12776Y-19594D01*
X12859Y-19658D01*
X12957Y-19699D01*
X13061Y-19713D01*
X13165Y-19699D01*
X13263Y-19658D01*
X13346Y-19594D01*
X13410Y-19511D01*
X13451Y-19413D01*
X13464Y-19309D01*
X13451Y-19205D01*
X13410Y-19107D01*
X13346Y-19024D01*
X13263Y-18960D01*
X13216Y-18940D01*
Y-18890D01*
X13263Y-18871D01*
X13346Y-18807D01*
X13410Y-18723D01*
X13451Y-18626D01*
X13464Y-18522D01*
X13451Y-18417D01*
X13410Y-18320D01*
X13346Y-18236D01*
X13263Y-18172D01*
X13165Y-18132D01*
X13061Y-18118D01*
D02*
G37*
G36*
X13250Y-15538D02*
X13095Y-15553D01*
X12947Y-15598D01*
X12810Y-15672D01*
X12689Y-15770D01*
X12591Y-15890D01*
X12518Y-16027D01*
X12472Y-16176D01*
X12457Y-16331D01*
X12472Y-16485D01*
X12518Y-16634D01*
X12591Y-16771D01*
X12689Y-16891D01*
X12810Y-16990D01*
X12947Y-17063D01*
X13031Y-17089D01*
X13027Y-17138D01*
X12957Y-17148D01*
X12859Y-17188D01*
X12776Y-17252D01*
X12712Y-17336D01*
X12671Y-17433D01*
X12658Y-17537D01*
X12671Y-17642D01*
X12712Y-17739D01*
X12776Y-17823D01*
X12859Y-17887D01*
X12957Y-17927D01*
X13061Y-17941D01*
X13165Y-17927D01*
X13263Y-17887D01*
X13346Y-17823D01*
X13410Y-17739D01*
X13451Y-17642D01*
X13464Y-17537D01*
X13451Y-17433D01*
X13410Y-17336D01*
X13346Y-17252D01*
X13263Y-17188D01*
X13220Y-17170D01*
X13232Y-17122D01*
X13250Y-17124D01*
X13405Y-17108D01*
X13553Y-17063D01*
X13690Y-16990D01*
X13811Y-16891D01*
X13909Y-16771D01*
X13982Y-16634D01*
X14028Y-16485D01*
X14043Y-16331D01*
X14028Y-16176D01*
X13982Y-16027D01*
X13909Y-15890D01*
X13811Y-15770D01*
X13690Y-15672D01*
X13553Y-15598D01*
X13405Y-15553D01*
X13250Y-15538D01*
D02*
G37*
G36*
X10573D02*
X10418Y-15553D01*
X10269Y-15598D01*
X10132Y-15672D01*
X10012Y-15770D01*
X9914Y-15890D01*
X9840Y-16027D01*
X9795Y-16176D01*
X9780Y-16331D01*
X9795Y-16485D01*
X9840Y-16634D01*
X9914Y-16771D01*
X10012Y-16891D01*
X10132Y-16990D01*
X10269Y-17063D01*
X10418Y-17108D01*
X10573Y-17124D01*
X10727Y-17108D01*
X10876Y-17063D01*
X11013Y-16990D01*
X11133Y-16891D01*
X11232Y-16771D01*
X11305Y-16634D01*
X11350Y-16485D01*
X11366Y-16331D01*
X11350Y-16176D01*
X11305Y-16027D01*
X11232Y-15890D01*
X11133Y-15770D01*
X11013Y-15672D01*
X10876Y-15598D01*
X10727Y-15553D01*
X10573Y-15538D01*
D02*
G37*
G36*
X9715Y-17134D02*
X9610Y-17148D01*
X9513Y-17188D01*
X9429Y-17252D01*
X9365Y-17336D01*
X9325Y-17433D01*
X9311Y-17537D01*
X9325Y-17642D01*
X9365Y-17739D01*
X9429Y-17823D01*
X9513Y-17887D01*
X9610Y-17927D01*
X9715Y-17941D01*
X9819Y-17927D01*
X9916Y-17887D01*
X10000Y-17823D01*
X10064Y-17739D01*
X10104Y-17642D01*
X10118Y-17537D01*
X10104Y-17433D01*
X10064Y-17336D01*
X10000Y-17252D01*
X9916Y-17188D01*
X9819Y-17148D01*
X9715Y-17134D01*
D02*
G37*
G36*
X13432Y-20443D02*
X12690D01*
X12712Y-20495D01*
X12776Y-20579D01*
X12859Y-20643D01*
X12957Y-20683D01*
X13027Y-20692D01*
X13031Y-20742D01*
X12947Y-20768D01*
X12810Y-20841D01*
X12689Y-20939D01*
X12591Y-21060D01*
X12518Y-21197D01*
X12472Y-21345D01*
X12457Y-21500D01*
X12472Y-21655D01*
X12518Y-21803D01*
X12591Y-21940D01*
X12689Y-22061D01*
X12810Y-22159D01*
X12947Y-22232D01*
X13095Y-22278D01*
X13250Y-22293D01*
X13405Y-22278D01*
X13553Y-22232D01*
X13690Y-22159D01*
X13811Y-22061D01*
X13909Y-21940D01*
X13982Y-21803D01*
X14028Y-21655D01*
X14043Y-21500D01*
X14028Y-21345D01*
X13982Y-21197D01*
X13909Y-21060D01*
X13811Y-20939D01*
X13690Y-20841D01*
X13553Y-20768D01*
X13405Y-20722D01*
X13250Y-20707D01*
X13232Y-20709D01*
X13220Y-20660D01*
X13263Y-20643D01*
X13346Y-20579D01*
X13410Y-20495D01*
X13432Y-20443D01*
D02*
G37*
G36*
X10573Y-20707D02*
X10418Y-20722D01*
X10269Y-20768D01*
X10132Y-20841D01*
X10012Y-20939D01*
X9914Y-21060D01*
X9840Y-21197D01*
X9795Y-21345D01*
X9780Y-21500D01*
X9795Y-21655D01*
X9840Y-21803D01*
X9914Y-21940D01*
X10012Y-22061D01*
X10132Y-22159D01*
X10269Y-22232D01*
X10418Y-22278D01*
X10573Y-22293D01*
X10727Y-22278D01*
X10876Y-22232D01*
X11013Y-22159D01*
X11133Y-22061D01*
X11232Y-21940D01*
X11305Y-21803D01*
X11350Y-21655D01*
X11366Y-21500D01*
X11350Y-21345D01*
X11305Y-21197D01*
X11232Y-21060D01*
X11133Y-20939D01*
X11013Y-20841D01*
X10876Y-20768D01*
X10727Y-20722D01*
X10573Y-20707D01*
D02*
G37*
G36*
X11500Y-23896D02*
X11288Y-23912D01*
X11082Y-23962D01*
X10885Y-24043D01*
X10704Y-24154D01*
X10542Y-24292D01*
X10404Y-24454D01*
X10293Y-24635D01*
X10212Y-24832D01*
X10163Y-25038D01*
X10146Y-25250D01*
X10163Y-25462D01*
X10212Y-25668D01*
X10293Y-25865D01*
X10404Y-26046D01*
X10542Y-26208D01*
X10704Y-26346D01*
X10885Y-26457D01*
X11082Y-26538D01*
X11288Y-26588D01*
X11500Y-26604D01*
X11712Y-26588D01*
X11918Y-26538D01*
X12115Y-26457D01*
X12296Y-26346D01*
X12458Y-26208D01*
X12596Y-26046D01*
X12707Y-25865D01*
X12788Y-25668D01*
X12838Y-25462D01*
X12854Y-25250D01*
X12838Y-25038D01*
X12788Y-24832D01*
X12707Y-24635D01*
X12596Y-24454D01*
X12458Y-24292D01*
X12296Y-24154D01*
X12115Y-24043D01*
X11918Y-23962D01*
X11712Y-23912D01*
X11500Y-23896D01*
D02*
G37*
G36*
X9565Y-20443D02*
X9344D01*
X9365Y-20495D01*
X9429Y-20579D01*
X9513Y-20643D01*
X9565Y-20664D01*
Y-20443D01*
D02*
G37*
G36*
X9865Y-19922D02*
Y-20143D01*
X10085D01*
X10064Y-20092D01*
X10000Y-20008D01*
X9916Y-19944D01*
X9865Y-19922D01*
D02*
G37*
G36*
X9565D02*
X9513Y-19944D01*
X9429Y-20008D01*
X9365Y-20092D01*
X9344Y-20143D01*
X9565D01*
Y-19922D01*
D02*
G37*
G36*
X10085Y-20443D02*
X9865D01*
Y-20664D01*
X9916Y-20643D01*
X10000Y-20579D01*
X10064Y-20495D01*
X10085Y-20443D01*
D02*
G37*
G36*
X8915Y-12650D02*
X8550D01*
Y-13015D01*
X8669Y-12966D01*
X8780Y-12880D01*
X8866Y-12769D01*
X8915Y-12650D01*
D02*
G37*
G36*
X8250D02*
X7885D01*
X7934Y-12769D01*
X8020Y-12880D01*
X8131Y-12966D01*
X8250Y-13015D01*
Y-12650D01*
D02*
G37*
G36*
X3456Y-12700D02*
X2650D01*
Y-13153D01*
X2875D01*
X2993Y-13141D01*
X3106Y-13107D01*
X3210Y-13051D01*
X3301Y-12976D01*
X3376Y-12885D01*
X3432Y-12781D01*
X3456Y-12700D01*
D02*
G37*
G36*
X2350Y-11947D02*
X2125D01*
X2007Y-11959D01*
X1894Y-11993D01*
X1790Y-12049D01*
X1699Y-12124D01*
X1624Y-12215D01*
X1568Y-12319D01*
X1543Y-12400D01*
X2350D01*
Y-11947D01*
D02*
G37*
G36*
X8550Y-11985D02*
Y-12350D01*
X8915D01*
X8866Y-12231D01*
X8780Y-12120D01*
X8669Y-12034D01*
X8550Y-11985D01*
D02*
G37*
G36*
X8250D02*
X8131Y-12034D01*
X8020Y-12120D01*
X7934Y-12231D01*
X7885Y-12350D01*
X8250D01*
Y-11985D01*
D02*
G37*
G36*
X2875Y-11947D02*
X2650D01*
Y-12400D01*
X3456D01*
X3432Y-12319D01*
X3376Y-12215D01*
X3301Y-12124D01*
X3210Y-12049D01*
X3106Y-11993D01*
X2993Y-11959D01*
X2875Y-11947D01*
D02*
G37*
G36*
X3456Y-14200D02*
X2650D01*
Y-14653D01*
X2875D01*
X2993Y-14641D01*
X3106Y-14607D01*
X3210Y-14551D01*
X3301Y-14476D01*
X3376Y-14385D01*
X3432Y-14281D01*
X3456Y-14200D01*
D02*
G37*
G36*
X2350D02*
X1543D01*
X1568Y-14281D01*
X1624Y-14385D01*
X1699Y-14476D01*
X1790Y-14551D01*
X1894Y-14607D01*
X2007Y-14641D01*
X2125Y-14653D01*
X2350D01*
Y-14200D01*
D02*
G37*
G36*
X375Y-13447D02*
X-375D01*
X-493Y-13459D01*
X-606Y-13493D01*
X-710Y-13549D01*
X-801Y-13624D01*
X-876Y-13715D01*
X-932Y-13819D01*
X-966Y-13932D01*
X-978Y-14050D01*
X-966Y-14168D01*
X-932Y-14281D01*
X-876Y-14385D01*
X-801Y-14476D01*
X-710Y-14551D01*
X-606Y-14607D01*
X-493Y-14641D01*
X-375Y-14653D01*
X375D01*
X493Y-14641D01*
X606Y-14607D01*
X710Y-14551D01*
X801Y-14476D01*
X876Y-14385D01*
X932Y-14281D01*
X966Y-14168D01*
X978Y-14050D01*
X966Y-13932D01*
X932Y-13819D01*
X876Y-13715D01*
X801Y-13624D01*
X710Y-13549D01*
X606Y-13493D01*
X493Y-13459D01*
X375Y-13447D01*
D02*
G37*
G36*
X2350D02*
X2125D01*
X2007Y-13459D01*
X1894Y-13493D01*
X1790Y-13549D01*
X1699Y-13624D01*
X1624Y-13715D01*
X1568Y-13819D01*
X1543Y-13900D01*
X2350D01*
Y-13447D01*
D02*
G37*
G36*
Y-12700D02*
X1543D01*
X1568Y-12781D01*
X1624Y-12885D01*
X1699Y-12976D01*
X1790Y-13051D01*
X1894Y-13107D01*
X2007Y-13141D01*
X2125Y-13153D01*
X2350D01*
Y-12700D01*
D02*
G37*
G36*
X375Y-11947D02*
X-375D01*
X-493Y-11959D01*
X-606Y-11993D01*
X-710Y-12049D01*
X-801Y-12124D01*
X-876Y-12215D01*
X-932Y-12319D01*
X-966Y-12432D01*
X-978Y-12550D01*
X-966Y-12668D01*
X-932Y-12781D01*
X-876Y-12885D01*
X-801Y-12976D01*
X-710Y-13051D01*
X-606Y-13107D01*
X-493Y-13141D01*
X-375Y-13153D01*
X375D01*
X493Y-13141D01*
X606Y-13107D01*
X710Y-13051D01*
X801Y-12976D01*
X876Y-12885D01*
X932Y-12781D01*
X966Y-12668D01*
X978Y-12550D01*
X966Y-12432D01*
X932Y-12319D01*
X876Y-12215D01*
X801Y-12124D01*
X710Y-12049D01*
X606Y-11993D01*
X493Y-11959D01*
X375Y-11947D01*
D02*
G37*
G36*
X2875Y-13447D02*
X2650D01*
Y-13900D01*
X3456D01*
X3432Y-13819D01*
X3376Y-13715D01*
X3301Y-13624D01*
X3210Y-13549D01*
X3106Y-13493D01*
X2993Y-13459D01*
X2875Y-13447D01*
D02*
G37*
G36*
X14250Y2050D02*
X13885D01*
X13934Y1931D01*
X14020Y1820D01*
X14131Y1734D01*
X14250Y1685D01*
Y2050D01*
D02*
G37*
G36*
X8400Y1738D02*
X8261Y1719D01*
X8131Y1666D01*
X8020Y1580D01*
X7934Y1469D01*
X7881Y1339D01*
X7862Y1200D01*
X7881Y1061D01*
X7934Y931D01*
X8020Y820D01*
X8131Y734D01*
X8261Y681D01*
X8400Y662D01*
X8539Y681D01*
X8669Y734D01*
X8780Y820D01*
X8866Y931D01*
X8919Y1061D01*
X8938Y1200D01*
X8919Y1339D01*
X8866Y1469D01*
X8780Y1580D01*
X8669Y1666D01*
X8539Y1719D01*
X8400Y1738D01*
D02*
G37*
G36*
X14550Y715D02*
Y350D01*
X14915D01*
X14866Y469D01*
X14780Y580D01*
X14669Y666D01*
X14550Y715D01*
D02*
G37*
G36*
X14915Y2050D02*
X14550D01*
Y1685D01*
X14669Y1734D01*
X14780Y1820D01*
X14866Y1931D01*
X14915Y2050D01*
D02*
G37*
G36*
X8400Y3738D02*
X8261Y3719D01*
X8131Y3666D01*
X8020Y3580D01*
X7934Y3469D01*
X7881Y3339D01*
X7862Y3200D01*
X7881Y3061D01*
X7934Y2931D01*
X8020Y2820D01*
X8131Y2734D01*
X8261Y2681D01*
X8400Y2662D01*
X8539Y2681D01*
X8669Y2734D01*
X8780Y2820D01*
X8866Y2931D01*
X8919Y3061D01*
X8938Y3200D01*
X8919Y3339D01*
X8866Y3469D01*
X8780Y3580D01*
X8669Y3666D01*
X8539Y3719D01*
X8400Y3738D01*
D02*
G37*
G36*
X14550Y2715D02*
Y2350D01*
X14915D01*
X14866Y2469D01*
X14780Y2580D01*
X14669Y2666D01*
X14550Y2715D01*
D02*
G37*
G36*
X14250D02*
X14131Y2666D01*
X14020Y2580D01*
X13934Y2469D01*
X13885Y2350D01*
X14250D01*
Y2715D01*
D02*
G37*
G36*
Y50D02*
X13885D01*
X13934Y-69D01*
X14020Y-180D01*
X14131Y-266D01*
X14250Y-315D01*
Y50D01*
D02*
G37*
G36*
X3456Y-150D02*
X2650D01*
Y-603D01*
X2875D01*
X2993Y-591D01*
X3106Y-557D01*
X3210Y-501D01*
X3301Y-426D01*
X3376Y-335D01*
X3432Y-231D01*
X3456Y-150D01*
D02*
G37*
G36*
X2350D02*
X1543D01*
X1568Y-231D01*
X1624Y-335D01*
X1699Y-426D01*
X1790Y-501D01*
X1894Y-557D01*
X2007Y-591D01*
X2125Y-603D01*
X2350D01*
Y-150D01*
D02*
G37*
G36*
X14915Y50D02*
X14550D01*
Y-315D01*
X14669Y-266D01*
X14780Y-180D01*
X14866Y-69D01*
X14915Y50D01*
D02*
G37*
G36*
X14250Y715D02*
X14131Y666D01*
X14020Y580D01*
X13934Y469D01*
X13885Y350D01*
X14250D01*
Y715D01*
D02*
G37*
G36*
X2875Y603D02*
X2650D01*
Y150D01*
X3456D01*
X3432Y231D01*
X3376Y335D01*
X3301Y426D01*
X3210Y501D01*
X3106Y557D01*
X2993Y591D01*
X2875Y603D01*
D02*
G37*
G36*
X2350D02*
X2125D01*
X2007Y591D01*
X1894Y557D01*
X1790Y501D01*
X1699Y426D01*
X1624Y335D01*
X1568Y231D01*
X1543Y150D01*
X2350D01*
Y603D01*
D02*
G37*
G36*
X14250Y4050D02*
X13885D01*
X13934Y3931D01*
X14020Y3820D01*
X14131Y3734D01*
X14250Y3685D01*
Y4050D01*
D02*
G37*
G36*
Y8050D02*
X13885D01*
X13934Y7931D01*
X14020Y7820D01*
X14131Y7734D01*
X14250Y7685D01*
Y8050D01*
D02*
G37*
G36*
X8400Y7738D02*
X8261Y7719D01*
X8131Y7666D01*
X8020Y7580D01*
X7934Y7469D01*
X7881Y7339D01*
X7862Y7200D01*
X7881Y7061D01*
X7934Y6931D01*
X8020Y6820D01*
X8131Y6734D01*
X8261Y6681D01*
X8400Y6662D01*
X8539Y6681D01*
X8669Y6734D01*
X8780Y6820D01*
X8866Y6931D01*
X8919Y7061D01*
X8938Y7200D01*
X8919Y7339D01*
X8866Y7469D01*
X8780Y7580D01*
X8669Y7666D01*
X8539Y7719D01*
X8400Y7738D01*
D02*
G37*
G36*
X14550Y6715D02*
Y6350D01*
X14915D01*
X14866Y6469D01*
X14780Y6580D01*
X14669Y6666D01*
X14550Y6715D01*
D02*
G37*
G36*
X14915Y8050D02*
X14550D01*
Y7685D01*
X14669Y7734D01*
X14780Y7820D01*
X14866Y7931D01*
X14915Y8050D01*
D02*
G37*
G36*
X11500Y12354D02*
X11288Y12337D01*
X11082Y12288D01*
X10885Y12207D01*
X10704Y12096D01*
X10542Y11958D01*
X10404Y11796D01*
X10293Y11615D01*
X10212Y11418D01*
X10163Y11212D01*
X10146Y11000D01*
X10163Y10788D01*
X10212Y10582D01*
X10293Y10385D01*
X10404Y10204D01*
X10542Y10042D01*
X10704Y9904D01*
X10885Y9793D01*
X11082Y9712D01*
X11288Y9663D01*
X11500Y9646D01*
X11712Y9663D01*
X11918Y9712D01*
X12115Y9793D01*
X12296Y9904D01*
X12458Y10042D01*
X12596Y10204D01*
X12707Y10385D01*
X12788Y10582D01*
X12838Y10788D01*
X12854Y11000D01*
X12838Y11212D01*
X12788Y11418D01*
X12707Y11615D01*
X12596Y11796D01*
X12458Y11958D01*
X12296Y12096D01*
X12115Y12207D01*
X11918Y12288D01*
X11712Y12337D01*
X11500Y12354D01*
D02*
G37*
G36*
X14550Y8715D02*
Y8350D01*
X14915D01*
X14866Y8469D01*
X14780Y8580D01*
X14669Y8666D01*
X14550Y8715D01*
D02*
G37*
G36*
X14250D02*
X14131Y8666D01*
X14020Y8580D01*
X13934Y8469D01*
X13885Y8350D01*
X14250D01*
Y8715D01*
D02*
G37*
G36*
X14550Y4715D02*
Y4350D01*
X14915D01*
X14866Y4469D01*
X14780Y4580D01*
X14669Y4666D01*
X14550Y4715D01*
D02*
G37*
G36*
X14250D02*
X14131Y4666D01*
X14020Y4580D01*
X13934Y4469D01*
X13885Y4350D01*
X14250D01*
Y4715D01*
D02*
G37*
G36*
X14915Y4050D02*
X14550D01*
Y3685D01*
X14669Y3734D01*
X14780Y3820D01*
X14866Y3931D01*
X14915Y4050D01*
D02*
G37*
G36*
X8400Y5738D02*
X8261Y5719D01*
X8131Y5666D01*
X8020Y5580D01*
X7934Y5469D01*
X7881Y5339D01*
X7862Y5200D01*
X7881Y5061D01*
X7934Y4931D01*
X8020Y4820D01*
X8131Y4734D01*
X8261Y4681D01*
X8400Y4662D01*
X8539Y4681D01*
X8669Y4734D01*
X8780Y4820D01*
X8866Y4931D01*
X8919Y5061D01*
X8938Y5200D01*
X8919Y5339D01*
X8866Y5469D01*
X8780Y5580D01*
X8669Y5666D01*
X8539Y5719D01*
X8400Y5738D01*
D02*
G37*
G36*
X14250Y6715D02*
X14131Y6666D01*
X14020Y6580D01*
X13934Y6469D01*
X13885Y6350D01*
X14250D01*
Y6715D01*
D02*
G37*
G36*
X14915Y6050D02*
X14550D01*
Y5685D01*
X14669Y5734D01*
X14780Y5820D01*
X14866Y5931D01*
X14915Y6050D01*
D02*
G37*
G36*
X14250D02*
X13885D01*
X13934Y5931D01*
X14020Y5820D01*
X14131Y5734D01*
X14250Y5685D01*
Y6050D01*
D02*
G37*
G36*
X3456Y-4650D02*
X2650D01*
Y-5103D01*
X2875D01*
X2993Y-5091D01*
X3106Y-5057D01*
X3210Y-5001D01*
X3301Y-4926D01*
X3376Y-4835D01*
X3432Y-4731D01*
X3456Y-4650D01*
D02*
G37*
G36*
X2350D02*
X1543D01*
X1568Y-4731D01*
X1624Y-4835D01*
X1699Y-4926D01*
X1790Y-5001D01*
X1894Y-5057D01*
X2007Y-5091D01*
X2125Y-5103D01*
X2350D01*
Y-4650D01*
D02*
G37*
G36*
X375Y-3897D02*
X-375D01*
X-493Y-3909D01*
X-606Y-3943D01*
X-710Y-3999D01*
X-801Y-4074D01*
X-876Y-4165D01*
X-932Y-4269D01*
X-966Y-4382D01*
X-978Y-4500D01*
X-966Y-4618D01*
X-932Y-4731D01*
X-876Y-4835D01*
X-801Y-4926D01*
X-710Y-5001D01*
X-606Y-5057D01*
X-493Y-5091D01*
X-375Y-5103D01*
X375D01*
X493Y-5091D01*
X606Y-5057D01*
X710Y-5001D01*
X801Y-4926D01*
X876Y-4835D01*
X932Y-4731D01*
X966Y-4618D01*
X978Y-4500D01*
X966Y-4382D01*
X932Y-4269D01*
X876Y-4165D01*
X801Y-4074D01*
X710Y-3999D01*
X606Y-3943D01*
X493Y-3909D01*
X375Y-3897D01*
D02*
G37*
G36*
X8250Y-4650D02*
X7885D01*
X7934Y-4769D01*
X8020Y-4880D01*
X8131Y-4966D01*
X8250Y-5015D01*
Y-4650D01*
D02*
G37*
G36*
X2875Y-3897D02*
X2650D01*
Y-4350D01*
X3456D01*
X3432Y-4269D01*
X3376Y-4165D01*
X3301Y-4074D01*
X3210Y-3999D01*
X3106Y-3943D01*
X2993Y-3909D01*
X2875Y-3897D01*
D02*
G37*
G36*
X2350D02*
X2125D01*
X2007Y-3909D01*
X1894Y-3943D01*
X1790Y-3999D01*
X1699Y-4074D01*
X1624Y-4165D01*
X1568Y-4269D01*
X1543Y-4350D01*
X2350D01*
Y-3897D01*
D02*
G37*
G36*
X8915Y-4650D02*
X8550D01*
Y-5015D01*
X8669Y-4966D01*
X8780Y-4880D01*
X8866Y-4769D01*
X8915Y-4650D01*
D02*
G37*
G36*
X8250Y-5985D02*
X8131Y-6034D01*
X8020Y-6120D01*
X7934Y-6231D01*
X7885Y-6350D01*
X8250D01*
Y-5985D01*
D02*
G37*
G36*
X3456Y-6150D02*
X2650D01*
Y-6603D01*
X2875D01*
X2993Y-6591D01*
X3106Y-6557D01*
X3210Y-6501D01*
X3301Y-6426D01*
X3376Y-6335D01*
X3432Y-6231D01*
X3456Y-6150D01*
D02*
G37*
G36*
X2350D02*
X1543D01*
X1568Y-6231D01*
X1624Y-6335D01*
X1699Y-6426D01*
X1790Y-6501D01*
X1894Y-6557D01*
X2007Y-6591D01*
X2125Y-6603D01*
X2350D01*
Y-6150D01*
D02*
G37*
G36*
X8550Y-5985D02*
Y-6350D01*
X8915D01*
X8866Y-6231D01*
X8780Y-6120D01*
X8669Y-6034D01*
X8550Y-5985D01*
D02*
G37*
G36*
X2875Y-5397D02*
X2650D01*
Y-5850D01*
X3456D01*
X3432Y-5769D01*
X3376Y-5665D01*
X3301Y-5574D01*
X3210Y-5499D01*
X3106Y-5443D01*
X2993Y-5409D01*
X2875Y-5397D01*
D02*
G37*
G36*
X2350D02*
X2125D01*
X2007Y-5409D01*
X1894Y-5443D01*
X1790Y-5499D01*
X1699Y-5574D01*
X1624Y-5665D01*
X1568Y-5769D01*
X1543Y-5850D01*
X2350D01*
Y-5397D01*
D02*
G37*
G36*
X14400Y-4962D02*
X14261Y-4981D01*
X14131Y-5034D01*
X14020Y-5120D01*
X13934Y-5231D01*
X13881Y-5361D01*
X13862Y-5500D01*
X13881Y-5639D01*
X13934Y-5769D01*
X14020Y-5880D01*
X14131Y-5966D01*
X14261Y-6019D01*
X14400Y-6038D01*
X14539Y-6019D01*
X14669Y-5966D01*
X14780Y-5880D01*
X14866Y-5769D01*
X14919Y-5639D01*
X14938Y-5500D01*
X14919Y-5361D01*
X14866Y-5231D01*
X14780Y-5120D01*
X14669Y-5034D01*
X14539Y-4981D01*
X14400Y-4962D01*
D02*
G37*
G36*
X8250Y-3985D02*
X8131Y-4034D01*
X8020Y-4120D01*
X7934Y-4231D01*
X7885Y-4350D01*
X8250D01*
Y-3985D01*
D02*
G37*
G36*
X3456Y-1650D02*
X2650D01*
Y-2103D01*
X2875D01*
X2993Y-2091D01*
X3106Y-2057D01*
X3210Y-2001D01*
X3301Y-1926D01*
X3376Y-1835D01*
X3432Y-1731D01*
X3456Y-1650D01*
D02*
G37*
G36*
X2350D02*
X1543D01*
X1568Y-1731D01*
X1624Y-1835D01*
X1699Y-1926D01*
X1790Y-2001D01*
X1894Y-2057D01*
X2007Y-2091D01*
X2125Y-2103D01*
X2350D01*
Y-1650D01*
D02*
G37*
G36*
X375Y-897D02*
X-375D01*
X-493Y-909D01*
X-606Y-943D01*
X-710Y-999D01*
X-801Y-1074D01*
X-876Y-1165D01*
X-932Y-1269D01*
X-966Y-1382D01*
X-978Y-1500D01*
X-966Y-1618D01*
X-932Y-1731D01*
X-876Y-1835D01*
X-801Y-1926D01*
X-710Y-2001D01*
X-606Y-2057D01*
X-493Y-2091D01*
X-375Y-2103D01*
X375D01*
X493Y-2091D01*
X606Y-2057D01*
X710Y-2001D01*
X801Y-1926D01*
X876Y-1835D01*
X932Y-1731D01*
X966Y-1618D01*
X978Y-1500D01*
X966Y-1382D01*
X932Y-1269D01*
X876Y-1165D01*
X801Y-1074D01*
X710Y-999D01*
X606Y-943D01*
X493Y-909D01*
X375Y-897D01*
D02*
G37*
G36*
X2350D02*
X2125D01*
X2007Y-909D01*
X1894Y-943D01*
X1790Y-999D01*
X1699Y-1074D01*
X1624Y-1165D01*
X1568Y-1269D01*
X1543Y-1350D01*
X2350D01*
Y-897D01*
D02*
G37*
G36*
X375Y603D02*
X-375D01*
X-493Y591D01*
X-606Y557D01*
X-710Y501D01*
X-801Y426D01*
X-876Y335D01*
X-932Y231D01*
X-966Y118D01*
X-978Y0D01*
X-966Y-118D01*
X-932Y-231D01*
X-876Y-335D01*
X-801Y-426D01*
X-710Y-501D01*
X-606Y-557D01*
X-493Y-591D01*
X-375Y-603D01*
X375D01*
X493Y-591D01*
X606Y-557D01*
X710Y-501D01*
X801Y-426D01*
X876Y-335D01*
X932Y-231D01*
X966Y-118D01*
X978Y0D01*
X966Y118D01*
X932Y231D01*
X876Y335D01*
X801Y426D01*
X710Y501D01*
X606Y557D01*
X493Y591D01*
X375Y603D01*
D02*
G37*
G36*
X8400Y-262D02*
X8261Y-281D01*
X8131Y-334D01*
X8020Y-420D01*
X7934Y-531D01*
X7881Y-661D01*
X7862Y-800D01*
X7881Y-939D01*
X7934Y-1069D01*
X8020Y-1180D01*
X8131Y-1266D01*
X8261Y-1319D01*
X8400Y-1338D01*
X8539Y-1319D01*
X8669Y-1266D01*
X8780Y-1180D01*
X8866Y-1069D01*
X8919Y-939D01*
X8938Y-800D01*
X8919Y-661D01*
X8866Y-531D01*
X8780Y-420D01*
X8669Y-334D01*
X8539Y-281D01*
X8400Y-262D01*
D02*
G37*
G36*
X2875Y-897D02*
X2650D01*
Y-1350D01*
X3456D01*
X3432Y-1269D01*
X3376Y-1165D01*
X3301Y-1074D01*
X3210Y-999D01*
X3106Y-943D01*
X2993Y-909D01*
X2875Y-897D01*
D02*
G37*
G36*
X375Y-2397D02*
X-375D01*
X-493Y-2409D01*
X-606Y-2443D01*
X-710Y-2499D01*
X-801Y-2574D01*
X-876Y-2665D01*
X-932Y-2769D01*
X-966Y-2882D01*
X-978Y-3000D01*
X-966Y-3118D01*
X-932Y-3231D01*
X-876Y-3335D01*
X-801Y-3426D01*
X-710Y-3501D01*
X-606Y-3557D01*
X-493Y-3591D01*
X-375Y-3603D01*
X375D01*
X493Y-3591D01*
X606Y-3557D01*
X710Y-3501D01*
X801Y-3426D01*
X876Y-3335D01*
X932Y-3231D01*
X966Y-3118D01*
X978Y-3000D01*
X966Y-2882D01*
X932Y-2769D01*
X876Y-2665D01*
X801Y-2574D01*
X710Y-2499D01*
X606Y-2443D01*
X493Y-2409D01*
X375Y-2397D01*
D02*
G37*
G36*
X14400Y-2962D02*
X14261Y-2981D01*
X14131Y-3034D01*
X14020Y-3120D01*
X13934Y-3231D01*
X13881Y-3361D01*
X13862Y-3500D01*
X13881Y-3639D01*
X13934Y-3769D01*
X14020Y-3880D01*
X14131Y-3966D01*
X14261Y-4019D01*
X14400Y-4038D01*
X14539Y-4019D01*
X14669Y-3966D01*
X14780Y-3880D01*
X14866Y-3769D01*
X14919Y-3639D01*
X14938Y-3500D01*
X14919Y-3361D01*
X14866Y-3231D01*
X14780Y-3120D01*
X14669Y-3034D01*
X14539Y-2981D01*
X14400Y-2962D01*
D02*
G37*
G36*
X8550Y-3985D02*
Y-4350D01*
X8915D01*
X8866Y-4231D01*
X8780Y-4120D01*
X8669Y-4034D01*
X8550Y-3985D01*
D02*
G37*
G36*
X2350Y-3150D02*
X1543D01*
X1568Y-3231D01*
X1624Y-3335D01*
X1699Y-3426D01*
X1790Y-3501D01*
X1894Y-3557D01*
X2007Y-3591D01*
X2125Y-3603D01*
X2350D01*
Y-3150D01*
D02*
G37*
G36*
X2875Y-2397D02*
X2650D01*
Y-2850D01*
X3456D01*
X3432Y-2769D01*
X3376Y-2665D01*
X3301Y-2574D01*
X3210Y-2499D01*
X3106Y-2443D01*
X2993Y-2409D01*
X2875Y-2397D01*
D02*
G37*
G36*
X2350D02*
X2125D01*
X2007Y-2409D01*
X1894Y-2443D01*
X1790Y-2499D01*
X1699Y-2574D01*
X1624Y-2665D01*
X1568Y-2769D01*
X1543Y-2850D01*
X2350D01*
Y-2397D01*
D02*
G37*
G36*
X3456Y-3150D02*
X2650D01*
Y-3603D01*
X2875D01*
X2993Y-3591D01*
X3106Y-3557D01*
X3210Y-3501D01*
X3301Y-3426D01*
X3376Y-3335D01*
X3432Y-3231D01*
X3456Y-3150D01*
D02*
G37*
%LPD*%
D10*
X9715Y-19309D02*
Y-18522D01*
X13061Y-19309D02*
Y-18522D01*
D11*
Y-17537D02*
D03*
Y-18522D02*
D03*
Y-19309D02*
D03*
Y-20293D02*
D03*
X9715Y-17537D02*
D03*
Y-18522D02*
D03*
Y-19309D02*
D03*
Y-20293D02*
D03*
D12*
X10573Y-21500D02*
D03*
Y-16331D02*
D03*
X13250D02*
D03*
Y-21500D02*
D03*
D13*
X11500Y11000D02*
D03*
Y-25250D02*
D03*
D14*
X2500Y-14050D02*
D03*
X0D02*
D03*
X2500Y-12550D02*
D03*
X0D02*
D03*
X2500Y-11050D02*
D03*
X0D02*
D03*
X2500Y-9550D02*
D03*
X0D02*
D03*
X2500Y-8050D02*
D03*
X0D02*
D03*
X2500Y-6000D02*
D03*
X0D02*
D03*
X2500Y-4500D02*
D03*
X0D02*
D03*
X2500Y-3000D02*
D03*
X0D02*
D03*
X2500Y-1500D02*
D03*
X0D02*
D03*
X2500Y0D02*
D03*
X0D02*
D03*
D15*
X8400Y-12500D02*
D03*
Y-10500D02*
D03*
Y-8500D02*
D03*
Y-6500D02*
D03*
Y-4500D02*
D03*
X14400Y-11500D02*
D03*
Y-9500D02*
D03*
Y-7500D02*
D03*
Y-5500D02*
D03*
Y-3500D02*
D03*
X8400Y-800D02*
D03*
Y1200D02*
D03*
Y3200D02*
D03*
Y5200D02*
D03*
Y7200D02*
D03*
X14400Y200D02*
D03*
Y2200D02*
D03*
Y4200D02*
D03*
Y6200D02*
D03*
Y8200D02*
D03*
M02*
